# xmcd CD database file
#
# Track frame offsets:
#	150
#	17177
#	38182
#	60990
#	80510
#	103477
#	123475
#	138127
#	155122
#	173915
#	198775
#	218635
#	231410
#	254800
#
# Disc length: 3739 seconds
#
# Revision: 0
# Processed by: cddbd v1.4PL0 Copyright (c) Steve Scherf et al.
# Submitted via: CDex 1.51
#
DISCID=c90e990e
DTITLE=Ryan Farish - In The Day
DYEAR=2000
DGENRE=New Age
TTITLE0=Forgiven
TTITLE1=Waterdrops
TTITLE2=Hampton Blvd.
TTITLE3=In The Day
TTITLE4=Waves Crashing
TTITLE5=Friends
TTITLE6=New Beginning
TTITLE7=Traffic Jam
TTITLE8=Mirage
TTITLE9=By Grace
TTITLE10=Groovemension
TTITLE11=Looking Back
TTITLE12=Purple Fall
TTITLE13=Up Front
EXTD=YEAR: 2000
EXTT0=
EXTT1=
EXTT2=
EXTT3=
EXTT4=
EXTT5=
EXTT6=
EXTT7=
EXTT8=
EXTT9=
EXTT10=
EXTT11=
EXTT12=
EXTT13=
PLAYORDER=
